<svg width="164" height="24" viewBox="0 0 164 24" fill="none" xmlns="http://www.w3.org/2000/svg">
<g clip-path="url(#clip0_474_907)">
<path d="M55.2196 19.3641H48.4438L44.0709 15.554C42.5772 14.2552 41.8845 13.6274 41.3866 13.1295C41.4082 13.8006 41.4515 14.5149 41.4515 15.2077V19.3641H36.9487V4.88159H41.4515V8.23703C41.4515 9.12459 41.4082 10.0122 41.3649 10.7698C41.9278 10.2503 42.7071 9.51426 44.0276 8.41021L48.2057 4.88159H54.7001L49.1582 9.038C47.2315 10.4884 46.3439 11.1379 45.4131 11.7007C46.2357 12.2635 47.3614 13.0645 49.2231 14.5799L55.2196 19.3641Z" fill="#001696"/>
<path d="M77.2356 19.3641H71.2392L68.0136 15.5324H61.1296V19.3641H56.6484V11.9605H69.2476C70.633 11.9605 71.7154 11.3327 71.7154 10.3369C71.7154 9.21118 70.7846 8.64834 69.2476 8.64834H56.6484L59.5709 4.88159H68.8795C72.17 4.88159 76.3264 5.92069 76.3264 10.0555C76.3264 12.3068 74.9193 14.1686 72.538 14.6448C73.0359 15.0128 73.5771 15.5324 74.573 16.5498L77.2356 19.3641Z" fill="#001696"/>
<path d="M99.5548 12.1121C99.5548 17.286 96.0045 19.6023 88.9689 19.6023C81.9333 19.6023 78.3831 17.286 78.3831 12.1121C78.3831 6.93824 81.9117 4.64355 88.9689 4.64355C96.0261 4.64355 99.5548 6.93824 99.5548 12.1121ZM95.0953 12.1121C95.0953 8.99479 93.4717 8.4103 88.9689 8.4103C84.4661 8.4103 82.8425 8.99479 82.8425 12.1121C82.8425 15.2294 84.4661 15.8356 88.9689 15.8356C93.4717 15.8356 95.0953 15.2294 95.0953 12.1121Z" fill="#001696"/>
<path d="M114.708 18.823L105.833 10.8565V19.3642H101.763V7.34955C101.763 5.42288 102.932 4.64355 104.209 4.64355C104.75 4.64355 105.291 4.77344 106.006 5.42288L114.881 13.3893V4.88168H118.973V16.8747C118.973 18.8013 117.804 19.6023 116.505 19.6023C115.942 19.6023 115.401 19.4724 114.708 18.823Z" fill="#001696"/>
<path d="M142.331 12.1121C142.331 17.286 138.781 19.6023 131.745 19.6023C124.71 19.6023 121.159 17.286 121.159 12.1121C121.159 6.93824 124.688 4.64355 131.745 4.64355C138.803 4.64355 142.331 6.93824 142.331 12.1121ZM137.872 12.1121C137.872 8.99479 136.248 8.4103 131.745 8.4103C127.243 8.4103 125.619 8.99479 125.619 12.1121C125.619 15.2294 127.243 15.8356 131.745 15.8356C136.248 15.8356 137.872 15.2294 137.872 12.1121Z" fill="#001696"/>
<path d="M158.024 10.6616C161.552 10.6616 163.457 11.9821 163.457 14.6232C163.457 17.5889 161.661 19.3641 157.244 19.3641H143.758L146.637 15.6406H157.591C158.652 15.6406 159.128 15.3376 159.128 14.5799C159.128 13.8222 158.652 13.5408 157.591 13.5408H149.711C145.988 13.5408 144.277 11.8739 144.277 9.38437C144.277 6.65672 146.096 4.88159 150.49 4.88159H163.068L160.189 8.64834H150.144C149.105 8.64834 148.607 8.90811 148.607 9.64414C148.607 10.3802 149.105 10.6616 150.144 10.6616H158.024Z" fill="#001696"/>
<path d="M24.6484 3.89453C26.0274 4.07853 26.9582 4.55046 27.2375 5.31463C28.0341 7.50541 23.2066 11.2743 16.4525 13.7335C9.69831 16.1927 3.57626 16.4092 2.77962 14.2184C2.50036 13.4521 2.91167 12.4931 3.84903 11.467C1.0651 13.4911 -0.417786 15.4892 0.10393 16.9201C1.08458 19.6174 8.80208 19.2819 17.3422 16.1754C25.8802 13.0668 32.0065 8.36267 31.0259 5.66533C30.5042 4.2344 28.0839 3.6564 24.6506 3.89453H24.6484Z" fill="#FFCE00"/>
<path d="M17.9897 17.4742C13.9978 18.9268 10.1877 19.7732 7.15918 19.9875C9.3348 22.3385 12.4456 23.8127 15.9006 23.8127C22.2716 23.8127 27.4758 18.8077 27.7919 12.5146C25.3413 14.2725 21.9231 16.0433 17.9897 17.4742Z" fill="#001696"/>
<path d="M15.9027 0C9.32607 0 3.99634 5.32973 3.99634 11.9064C3.99634 12.6727 4.07211 13.4217 4.21065 14.1491C6.62224 14.8418 11.2571 14.2487 16.2361 12.4346C21.0311 10.6898 24.852 8.28467 26.3825 6.25193C24.3692 2.52848 20.4315 0 15.9027 0ZM9.19185 10.1745C8.35407 10.1745 7.67649 9.49696 7.67649 8.65918C7.67649 7.82141 8.35407 7.14383 9.19185 7.14383C10.0296 7.14383 10.7072 7.82141 10.7072 8.65918C10.7072 9.49696 10.0296 10.1745 9.19185 10.1745Z" fill="#001696"/>
</g>
<defs>
<clipPath id="clip0_474_907">
<rect width="163.459" height="23.8128" fill="white"/>
</clipPath>
</defs>
</svg>
